<?xml version="1.0" encoding="UTF-8" standalone="no"?>
<svg width="280px" height="30px" viewBox="0 0 280 30" version="1.1" xmlns="http://www.w3.org/2000/svg" xmlns:xlink="http://www.w3.org/1999/xlink">
    <!-- Generator: Sketch 39.1 (31720) - http://www.bohemiancoding.com/sketch -->
    <title>Rectangle 3</title>
    <desc>Created with Sketch.</desc>
    <defs>
        <path d="M24.2617188,18.8359375 L24.2617188,20.984375 C22.8294199,21.7656289 21.1757906,22.15625 19.3007812,22.15625 C17.7773361,22.15625 16.4850313,21.8502635 15.4238281,21.2382812 C14.3626249,20.626299 13.5227896,19.7832085 12.9042969,18.7089844 C12.2858042,17.6347603 11.9765625,16.4726625 11.9765625,15.2226562 C11.9765625,13.2369692 12.6845632,11.5670641 14.1005859,10.2128906 C15.5166086,8.85871719 17.2630104,8.18164062 19.3398438,8.18164062 C20.7721426,8.18164062 22.3639235,8.55598584 24.1152344,9.3046875 L24.1152344,11.4042969 C22.5201743,10.492834 20.9609451,10.0371094 19.4375,10.0371094 C17.8749922,10.0371094 16.5778046,10.5302685 15.5458984,11.5166016 C14.5139922,12.5029346 13.9980469,13.7382738 13.9980469,15.2226562 C13.9980469,16.7200596 14.5058543,17.950516 15.5214844,18.9140625 C16.5371145,19.877609 17.8359296,20.359375 19.4179688,20.359375 C21.0716229,20.359375 22.68619,19.8515676 24.2617188,18.8359375 L24.2617188,18.8359375 Z M30.7167969,12.9960938 C32.0839912,12.9960938 33.2200476,13.4371701 34.125,14.3193359 C35.0299524,15.2015018 35.4824219,16.3098892 35.4824219,17.6445312 C35.4824219,18.9401106 35.0234421,20.0159462 34.1054688,20.8720703 C33.1874954,21.7281944 32.031908,22.15625 30.6386719,22.15625 C29.2910089,22.15625 28.1647181,21.721684 27.2597656,20.8525391 C26.3548132,19.9833941 25.9023438,18.897793 25.9023438,17.5957031 C25.9023438,16.2805924 26.3596959,15.1852257 27.2744141,14.3095703 C28.1891322,13.4339149 29.3365816,12.9960938 30.7167969,12.9960938 L30.7167969,12.9960938 Z M30.6191406,14.5976562 C29.7662718,14.5976562 29.066409,14.8776014 28.5195312,15.4375 C27.9726535,15.9973986 27.6992188,16.7102821 27.6992188,17.5761719 C27.6992188,18.4355512 27.9791639,19.1370416 28.5390625,19.6806641 C29.0989611,20.2242866 29.818355,20.4960938 30.6972656,20.4960938 C31.5696658,20.4960938 32.2841769,20.2210314 32.8408203,19.6708984 C33.3974637,19.1207655 33.6757812,18.4160199 33.6757812,17.5566406 C33.6757812,16.7037718 33.3860706,15.9973986 32.8066406,15.4375 C32.2272106,14.8776014 31.4980513,14.5976562 30.6191406,14.5976562 L30.6191406,14.5976562 Z M37.3378906,26.5800781 L37.3378906,13.015625 L40.453125,13.015625 C42.0481851,13.015625 43.2900346,13.4127564 44.1787109,14.2070312 C45.0673873,15.0013061 45.5117188,16.111321 45.5117188,17.5371094 C45.5117188,18.8847724 45.0934287,19.9915321 44.2568359,20.8574219 C43.4202432,21.7233116 42.3541731,22.15625 41.0585938,22.15625 C40.4856742,22.15625 39.8509149,22.0292981 39.1542969,21.7753906 L39.1542969,26.5800781 L37.3378906,26.5800781 Z M40.4140625,14.6757812 L39.1542969,14.6757812 L39.1542969,20.203125 C39.7011746,20.4830743 40.2740855,20.6230469 40.8730469,20.6230469 C41.7063844,20.6230469 42.3883437,20.3333362 42.9189453,19.7539062 C43.4495469,19.1744763 43.7148438,18.429041 43.7148438,17.5175781 C43.7148438,16.9316377 43.5895195,16.4140647 43.3388672,15.9648438 C43.0882149,15.5156228 42.7464214,15.1884776 42.3134766,14.9833984 C41.8805317,14.7783193 41.2474,14.6757812 40.4140625,14.6757812 L40.4140625,14.6757812 Z M52.953125,13.015625 L54.9550781,13.015625 L48.5976562,26.5800781 L46.6152344,26.5800781 L49.671875,20.0761719 L46.1953125,13.015625 L48.2167969,13.015625 L50.6386719,18.0839844 L52.953125,13.015625 Z M58.1191406,13.015625 L58.1191406,15.0761719 L58.2167969,14.9199219 C59.0761762,13.5331962 59.9355426,12.8398438 60.7949219,12.8398438 C61.4654981,12.8398438 62.1653609,13.178382 62.8945312,13.8554688 L61.9570312,15.4179688 C61.3385386,14.8320283 60.7656276,14.5390625 60.2382812,14.5390625 C59.6653617,14.5390625 59.1689474,14.8124973 58.7490234,15.359375 C58.3290995,15.9062527 58.1191406,16.5540327 58.1191406,17.3027344 L58.1191406,22 L56.3320312,22 L56.3320312,13.015625 L58.1191406,13.015625 Z M65.0527344,9.23632812 C65.3457046,9.23632812 65.5963531,9.33723857 65.8046875,9.5390625 C66.0130219,9.74088643 66.1171875,9.98827979 66.1171875,10.28125 C66.1171875,10.5677098 66.0130219,10.8151031 65.8046875,11.0234375 C65.5963531,11.2317719 65.3457046,11.3359375 65.0527344,11.3359375 C64.7792955,11.3359375 64.5384125,11.2301443 64.3300781,11.0185547 C64.1217437,10.8069651 64.0175781,10.5611993 64.0175781,10.28125 C64.0175781,10.0078111 64.1217437,9.76530054 64.3300781,9.55371094 C64.5384125,9.34212134 64.7792955,9.23632812 65.0527344,9.23632812 L65.0527344,9.23632812 Z M64.1738281,13.015625 L65.9511719,13.015625 L65.9511719,22 L64.1738281,22 L64.1738281,13.015625 Z M68.0605469,16.1210938 C68.0605469,15.1640577 68.4104783,14.4072293 69.1103516,13.8505859 C69.8102249,13.2939425 70.7656189,13.015625 71.9765625,13.015625 L75.6777344,13.015625 L75.6777344,14.4023438 L73.8613281,14.4023438 C74.2128924,14.7604185 74.4570306,15.085936 74.59375,15.3789062 C74.7304694,15.6718765 74.7988281,16.0071596 74.7988281,16.3847656 C74.7988281,16.853518 74.6653659,17.3141253 74.3984375,17.7666016 C74.1315091,18.2190778 73.788088,18.565754 73.3681641,18.8066406 C72.9482401,19.0475272 72.2597704,19.2395826 71.3027344,19.3828125 C70.6321581,19.4804692 70.296875,19.7115867 70.296875,20.0761719 C70.296875,20.2845062 70.4221993,20.455403 70.6728516,20.5888672 C70.9235039,20.7223314 71.3776009,20.8606764 72.0351562,21.0039062 C73.1354222,21.2447929 73.8434229,21.4335931 74.1591797,21.5703125 C74.4749365,21.7070319 74.7597644,21.9023425 75.0136719,22.15625 C75.4433615,22.5859396 75.6582031,23.1262988 75.6582031,23.7773438 C75.6582031,24.6302126 75.2789751,25.3105443 74.5205078,25.8183594 C73.7620405,26.3261744 72.7480532,26.5800781 71.4785156,26.5800781 C70.1959571,26.5800781 69.1722043,26.3245468 68.4072266,25.8134766 C67.6422488,25.3024063 67.2597656,24.6171918 67.2597656,23.7578125 C67.2597656,22.5403585 68.0117112,21.7558611 69.515625,21.4042969 C68.9166637,21.0201804 68.6171875,20.6393248 68.6171875,20.2617188 C68.6171875,19.975259 68.7457669,19.7148449 69.0029297,19.4804688 C69.2600924,19.2460926 69.6067687,19.0735683 70.0429688,18.9628906 C68.7213476,18.3769502 68.0605469,17.429694 68.0605469,16.1210938 L68.0605469,16.1210938 Z M71.4003906,14.5585938 C70.9186174,14.5585938 70.5084652,14.7213525 70.1699219,15.046875 C69.8313785,15.3723975 69.6621094,15.7630186 69.6621094,16.21875 C69.6621094,16.6809919 69.8281233,17.063475 70.1601562,17.3662109 C70.4921892,17.6689468 70.9121068,17.8203125 71.4199219,17.8203125 C71.9212265,17.8203125 72.3395166,17.6656917 72.6748047,17.3564453 C73.0100928,17.047199 73.1777344,16.6614606 73.1777344,16.1992188 C73.1777344,15.7304664 73.0084652,15.3398453 72.6699219,15.0273438 C72.3313785,14.7148422 71.9082057,14.5585938 71.4003906,14.5585938 L71.4003906,14.5585938 Z M70.9804688,22.4199219 C70.3815074,22.4199219 69.8916035,22.5468737 69.5107422,22.8007812 C69.1298809,23.0546888 68.9394531,23.3802063 68.9394531,23.7773438 C68.9394531,24.7018275 69.7727781,25.1640625 71.4394531,25.1640625 C72.2272175,25.1640625 72.8375629,25.0485038 73.2705078,24.8173828 C73.7034527,24.5862619 73.9199219,24.2591167 73.9199219,23.8359375 C73.9199219,23.4192688 73.6464871,23.0791029 73.0996094,22.8154297 C72.5527316,22.5517565 71.8463585,22.4199219 70.9804688,22.4199219 L70.9804688,22.4199219 Z M77.015625,8.35742188 L78.7929688,8.35742188 L78.7929688,14.1972656 C79.53516,13.2923132 80.4563747,12.8398438 81.5566406,12.8398438 C82.155602,12.8398438 82.692706,12.9895818 83.1679688,13.2890625 C83.6432315,13.5885432 83.9964181,14.0019505 84.2275391,14.5292969 C84.45866,15.0566433 84.5742188,15.8411406 84.5742188,16.8828125 L84.5742188,22 L82.796875,22 L82.796875,16.4433594 C82.796875,15.785804 82.6357438,15.2568379 82.3134766,14.8564453 C81.9912093,14.4560527 81.5664089,14.2558594 81.0390625,14.2558594 C80.6484355,14.2558594 80.2806007,14.3567698 79.9355469,14.5585938 C79.5904931,14.7604177 79.2096375,15.0957008 78.7929688,15.5644531 L78.7929688,22 L77.015625,22 L77.015625,8.35742188 Z M85.7949219,14.4414062 L89.1347656,11.1601562 L89.1347656,13.015625 L91.9765625,13.015625 L91.9765625,14.6171875 L89.1347656,14.6171875 L89.1347656,19.0214844 C89.1347656,20.0501354 89.5611937,20.5644531 90.4140625,20.5644531 C91.0520865,20.5644531 91.7259079,20.3496115 92.4355469,19.9199219 L92.4355469,21.5800781 C91.7519497,21.9641946 91.0065145,22.15625 90.1992188,22.15625 C89.3854126,22.15625 88.708336,21.9186222 88.1679688,21.4433594 C87.9986971,21.3001295 87.8587245,21.1389983 87.7480469,20.9599609 C87.6373692,20.7809236 87.5445967,20.5465509 87.4697266,20.2568359 C87.3948564,19.9671209 87.3574219,19.4153687 87.3574219,18.6015625 L87.3574219,14.6171875 L85.7949219,14.6171875 L85.7949219,14.4414062 Z M107.894531,11.4238281 C109.144538,11.4238281 110.124345,12.0227805 110.833984,13.2207031 L111.175781,11.6972656 L112.933594,11.6972656 L111.371094,18.9433594 C111.279947,19.3600281 111.234375,19.6334629 111.234375,19.7636719 C111.234375,19.9459645 111.299479,20.1005853 111.429688,20.2275391 C111.559896,20.3544928 111.7194,20.4179688 111.908203,20.4179688 C112.331382,20.4179688 112.873369,20.1461616 113.53418,19.6025391 C114.19499,19.0589166 114.715818,18.3769572 115.09668,17.5566406 C115.477541,16.736324 115.667969,15.883468 115.667969,14.9980469 C115.667969,13.2402256 115.003913,11.7737689 113.675781,10.5986328 C112.34765,9.42349673 110.68751,8.8359375 108.695312,8.8359375 C106.34504,8.8359375 104.400073,9.63182798 102.860352,11.2236328 C101.32063,12.8154376 100.550781,14.8287639 100.550781,17.2636719 C100.550781,19.6334754 101.291334,21.4726497 102.772461,22.78125 C104.253588,24.0898503 106.332018,24.7441406 109.007812,24.7441406 C110.583341,24.7441406 111.957025,24.4772162 113.128906,23.9433594 C113.571617,23.735025 114.030597,23.4697282 114.505859,23.1474609 C114.981122,22.8251937 115.423826,22.3841174 115.833984,21.8242188 L117.591797,21.8242188 C117.20768,22.6054727 116.563156,23.3557907 115.658203,24.0751953 C114.753251,24.7946 113.765305,25.3219384 112.694336,25.6572266 C111.623367,25.9925147 110.381517,26.1601562 108.96875,26.1601562 C105.902328,26.1601562 103.488616,25.3837968 101.727539,23.8310547 C99.9664625,22.2783125 99.0859375,20.1510552 99.0859375,17.4492188 C99.0859375,15.5807198 99.5205035,13.8375732 100.389648,12.2197266 C101.258793,10.6018799 102.40787,9.39746489 103.836914,8.60644531 C105.265958,7.81542573 106.917959,7.41992188 108.792969,7.41992188 C111.214856,7.41992188 113.213534,8.13931572 114.789062,9.578125 C116.364591,11.0169343 117.152344,12.8430879 117.152344,15.0566406 C117.152344,16.2089901 116.872399,17.327143 116.3125,18.4111328 C115.752601,19.4951226 115.013676,20.3675097 114.095703,21.0283203 C113.17773,21.6891309 112.230474,22.0195312 111.253906,22.0195312 C110.596351,22.0195312 110.129233,21.9007173 109.852539,21.6630859 C109.575845,21.4254545 109.408203,21.0039093 109.349609,20.3984375 C108.91992,20.9062525 108.444664,21.3001288 107.923828,21.5800781 C107.402992,21.8600274 106.885419,22 106.371094,22 C105.361974,22 104.520511,21.5833375 103.84668,20.75 C103.172848,19.9166625 102.835938,18.8815166 102.835938,17.6445312 C102.835938,16.6223907 103.076821,15.6263069 103.558594,14.65625 C104.040367,13.6861931 104.675126,12.9049509 105.462891,12.3125 C106.250655,11.7200491 107.061194,11.4238281 107.894531,11.4238281 L107.894531,11.4238281 Z M104.632812,17.8007812 C104.632812,18.608077 104.831378,19.2737604 105.228516,19.7978516 C105.625653,20.3219427 106.12695,20.5839844 106.732422,20.5839844 C107.637374,20.5839844 108.452796,20.0794321 109.178711,19.0703125 C109.904626,18.0611929 110.267578,16.9251365 110.267578,15.6621094 C110.267578,14.815751 110.060874,14.1337917 109.647461,13.6162109 C109.234047,13.0986302 108.688805,12.8398438 108.011719,12.8398438 C107.132808,12.8398438 106.349938,13.3460236 105.663086,14.3583984 C104.976234,15.3707733 104.632812,16.5182228 104.632812,17.8007812 L104.632812,17.8007812 Z M127.884766,20.1152344 L133.080078,20.1152344 L133.080078,22 L124.447266,22 L124.447266,21.8632812 L125.267578,20.8964844 C126.550137,19.3079348 127.570634,17.960292 128.329102,16.8535156 C129.087569,15.7467393 129.582356,14.9101591 129.813477,14.34375 C130.044598,13.7773409 130.160156,13.2174507 130.160156,12.6640625 C130.160156,11.8958295 129.942059,11.2789737 129.505859,10.8134766 C129.069659,10.3479794 128.490238,10.1152344 127.767578,10.1152344 C127.2207,10.1152344 126.681969,10.2763656 126.151367,10.5986328 C125.620766,10.9209 125.143882,11.3749971 124.720703,11.9609375 L124.720703,9.48046875 C125.781906,8.614579 126.875645,8.18164062 128.001953,8.18164062 C129.193365,8.18164062 130.174801,8.57877207 130.946289,9.37304688 C131.717777,10.1673217 132.103516,11.1764262 132.103516,12.4003906 C132.103516,12.9472684 132.007488,13.5315724 131.81543,14.1533203 C131.623371,14.7750682 131.283206,15.4912069 130.794922,16.3017578 C130.306638,17.1123087 129.476568,18.2174409 128.304688,19.6171875 L127.884766,20.1152344 Z M138.841797,8.18164062 C140.091803,8.18164062 141.125321,8.83755854 141.942383,10.1494141 C142.759444,11.4612696 143.167969,13.126292 143.167969,15.1445312 C143.167969,17.2148541 142.759444,18.89778 141.942383,20.1933594 C141.125321,21.4889388 140.065762,22.1367188 138.763672,22.1367188 C137.442051,22.1367188 136.380863,21.5019595 135.580078,20.2324219 C134.779293,18.9628843 134.378906,17.2799584 134.378906,15.1835938 C134.378906,13.1132709 134.792314,11.4287174 135.619141,10.1298828 C136.445968,8.83104819 137.520176,8.18164062 138.841797,8.18164062 L138.841797,8.18164062 Z M138.861328,10.0371094 L138.763672,10.0371094 C138.01497,10.0371094 137.420901,10.4977167 136.981445,11.4189453 C136.54199,12.3401739 136.322266,13.5885338 136.322266,15.1640625 C136.322266,16.7786539 136.537107,18.0449173 136.966797,18.9628906 C137.396487,19.880864 137.988929,20.3398438 138.744141,20.3398438 C139.499353,20.3398438 140.09505,19.880864 140.53125,18.9628906 C140.96745,18.0449173 141.185547,16.798185 141.185547,15.2226562 C141.185547,13.6406171 140.975588,12.3808641 140.555664,11.4433594 C140.13574,10.5058547 139.570967,10.0371094 138.861328,10.0371094 L138.861328,10.0371094 Z M147.806641,8.35742188 L149.759766,8.35742188 L149.759766,22 L147.806641,22 L147.806641,8.35742188 Z M159.90625,8.31835938 L160.101562,8.18164062 L161.283203,9.67578125 C160.241531,10.3463575 159.377282,11.0787721 158.69043,11.8730469 C158.003577,12.6673217 157.474611,13.6015571 157.103516,14.6757812 C157.826175,14.3046856 158.545569,14.1191406 159.261719,14.1191406 C160.335943,14.1191406 161.240882,14.4999962 161.976562,15.2617188 C162.712243,16.0234413 163.080078,16.9576768 163.080078,18.0644531 C163.080078,19.2037817 162.679692,20.1705689 161.878906,20.9648438 C161.078121,21.7591186 160.104823,22.15625 158.958984,22.15625 C157.676426,22.15625 156.639652,21.7054082 155.848633,20.8037109 C155.057613,19.9020137 154.662109,18.7220125 154.662109,17.2636719 C154.662109,16.1699164 154.865558,15.0810601 155.272461,13.9970703 C155.679364,12.9130805 156.265296,11.8974657 157.030273,10.9501953 C157.795251,10.002925 158.7539,9.12565508 159.90625,8.31835938 L159.90625,8.31835938 Z M156.683594,16.6972656 C156.63151,17.0032567 156.605469,17.3450502 156.605469,17.7226562 C156.605469,18.4908893 156.828448,19.1223934 157.274414,19.6171875 C157.72038,20.1119816 158.291663,20.359375 158.988281,20.359375 C159.613284,20.359375 160.12923,20.1477886 160.536133,19.7246094 C160.943036,19.3014302 161.146484,18.7675813 161.146484,18.1230469 C161.146484,17.4654915 160.930015,16.9332703 160.49707,16.5263672 C160.064125,16.1194641 159.492842,15.9160156 158.783203,15.9160156 C158.418618,15.9160156 158.088218,15.9713536 157.791992,16.0820312 C157.495767,16.1927089 157.126304,16.397785 156.683594,16.6972656 L156.683594,16.6972656 Z M177.900312,13.36 L177.900312,16.96 C177.900312,17.5 177.620312,17.78 177.100313,17.78 C176.500313,17.78 175.820312,17.74 175.060312,17.66 L175.420313,19.02 C176.120312,19.06 176.860313,19.08 177.620312,19.08 C178.720312,19.04 179.280312,18.48 179.300312,17.4 L179.300312,12.08 L172.180313,12.08 L172.180313,22.12 C172.180313,23.14 172.720312,23.66 173.840313,23.66 L178.600313,23.66 C179.540312,23.66 180.180313,23.5 180.500313,23.18 C180.860313,22.78 181.120312,21.74 181.260313,20.04 L179.900312,19.6 C179.820312,20.7 179.680313,21.44 179.500313,21.82 C179.340313,22.14 178.900312,22.32 178.220312,22.32 L174.400312,22.32 C173.880312,22.32 173.640312,22.08 173.640312,21.62 L173.640312,13.36 L177.900312,13.36 Z M175.360313,5.84 C173.760313,8.24 171.980312,10.32 170.020313,12.1 L170.860313,13.26 C172.820312,11.42 174.520313,9.4 176.000313,7.2 C177.280312,8.56 178.780312,10.38 180.500313,12.66 L181.440313,11.66 C179.840313,9.62 178.160313,7.68 176.420313,5.84 L175.360313,5.84 Z M182.620312,7.42 L182.620312,19.88 L184.020313,19.88 L184.020313,7.42 L182.620312,7.42 Z M185.960312,23.82 C187.080313,23.82 187.660313,23.2 187.660313,22 L187.660313,5.72 L186.220312,5.72 L186.220312,21.64 C186.220312,22.24 185.960312,22.54 185.460312,22.54 C184.540312,22.54 183.560312,22.5 182.540312,22.44 L182.860313,23.82 L185.960312,23.82 Z M190.680313,7.2 L190.680313,8.48 L195.200312,8.48 L195.200312,10.06 L196.680313,10.06 L196.680313,8.48 L201.960312,8.48 L201.960312,10.06 L203.440313,10.06 L203.440313,8.48 L207.960312,8.48 L207.960312,7.2 L203.440313,7.2 L203.440313,5.7 L201.960312,5.7 L201.960312,7.2 L196.680313,7.2 L196.680313,5.7 L195.200312,5.7 L195.200312,7.2 L190.680313,7.2 Z M197.300312,10.88 L191.540312,10.88 L191.540312,22.64 L192.920313,22.64 L192.920313,21.44 L197.300312,21.44 L197.300312,10.88 Z M192.920313,20.1 L192.920313,16.76 L195.920313,16.76 L195.920313,20.1 L192.920313,20.1 Z M192.920313,15.48 L192.920313,12.22 L195.920313,12.22 L195.920313,15.48 L192.920313,15.48 Z M200.640312,15.6 L205.640312,15.6 L205.640312,17.92 L200.640312,17.92 L200.640312,15.6 Z M205.640312,14.28 L200.640312,14.28 L200.640312,12.1 L205.640312,12.1 L205.640312,14.28 Z M200.540312,19.22 L205.640312,19.22 L205.640312,21.94 C205.640312,22.36 205.380312,22.58 204.880312,22.58 C204.260313,22.58 203.580313,22.54 202.840313,22.5 L203.220312,23.88 L205.320312,23.88 C206.460312,23.88 207.040312,23.4 207.040312,22.44 L207.040312,10.74 L199.240313,10.74 L199.240313,17.92 C199.200312,19.96 198.640312,21.62 197.540312,22.94 L198.640312,23.92 C199.680313,22.66 200.320312,21.1 200.540312,19.22 L200.540312,19.22 Z M218.660313,8.42 L218.660313,21.66 L210.640312,21.66 L210.640312,23.06 L227.980312,23.06 L227.980312,21.66 L220.140312,21.66 L220.140312,8.42 L227.120312,8.42 L227.120312,7.02 L211.700312,7.02 L211.700312,8.42 L218.660313,8.42 Z M239.000313,9.9 L240.080313,9.9 L240.080313,24.02 L241.540312,24.02 L241.540312,19.36 L247.500313,19.36 L247.500313,17.98 L241.540312,17.98 L241.540312,14.6 L247.380312,14.6 L247.380312,13.2 L241.540312,13.2 L241.540312,9.9 L248.260313,9.9 L248.260313,8.48 L239.620312,8.48 C239.940313,7.66 240.260313,6.78 240.580313,5.86 L239.140312,5.54 C238.020313,8.92 236.560312,11.66 234.800312,13.74 L235.820312,14.96 C237.020313,13.52 238.080313,11.84 239.000313,9.9 L239.000313,9.9 Z M232.600313,12.78 L232.600313,24.02 L234.080313,24.02 L234.080313,10.62 C234.880312,9.26 235.560312,7.8 236.100313,6.24 L234.740313,5.6 C233.760313,8.64 232.180313,11.32 230.020313,13.66 L230.500313,15.18 C231.260313,14.42 231.960312,13.62 232.600313,12.78 L232.600313,12.78 Z M252.700312,10.78 L252.700312,12.1 L255.980312,12.1 C254.680313,13.7 253.620312,14.68 252.800312,15.04 C252.720312,15.08 252.620312,15.14 252.500313,15.18 L252.820312,16.42 C254.780312,16.34 256.700312,16.26 258.580313,16.16 L258.580313,18.32 L252.240313,18.32 L252.240313,19.66 L258.580313,19.66 L258.580313,22.16 L250.640312,22.16 L250.640312,23.52 L268.000313,23.52 L268.000313,22.16 L260.060312,22.16 L260.060312,19.66 L266.440313,19.66 L266.440313,18.32 L260.060312,18.32 L260.060312,16.08 C261.540312,16 263.000313,15.9 264.420313,15.8 C264.860313,16.28 265.280312,16.78 265.640312,17.28 L266.680313,16.22 C265.560312,14.88 264.180313,13.52 262.540312,12.16 L261.620312,13.04 C262.220312,13.58 262.800312,14.12 263.360313,14.68 C260.540312,14.88 257.720312,15.02 254.900312,15.14 C255.680313,14.5 256.580313,13.5 257.620312,12.1 L265.940313,12.1 L265.940313,10.78 L252.700312,10.78 Z M259.240313,5.48 L257.640312,5.76 C258.000313,6.3 258.340313,6.9 258.640312,7.54 L250.960312,7.54 L250.960312,11.42 L252.420313,11.42 L252.420313,8.9 L266.220312,8.9 L266.220312,11.42 L267.680313,11.42 L267.680313,7.54 L260.200312,7.54 C259.880312,6.78 259.560312,6.08 259.240313,5.48 L259.240313,5.48 Z" id="path-1"></path>
        <filter x="-50%" y="-50%" width="200%" height="200%" filterUnits="objectBoundingBox" id="filter-2">
            <feOffset dx="0" dy="0" in="SourceAlpha" result="shadowOffsetOuter1"></feOffset>
            <feGaussianBlur stdDeviation="1" in="shadowOffsetOuter1" result="shadowBlurOuter1"></feGaussianBlur>
            <feColorMatrix values="0 0 0 0 0.760784314   0 0 0 0 0.760784314   0 0 0 0 0.760784314  0 0 0 0.7 0" type="matrix" in="shadowBlurOuter1"></feColorMatrix>
        </filter>
    </defs>
    <g id="Page-1" stroke="none" stroke-width="1" fill="none" fill-rule="evenodd">
        <g id="Copyright-@-2016-创萌工">
            <use fill="black" fill-opacity="1" filter="url(#filter-2)" xlink:href="#path-1"></use>
            <use fill="#C2C2C2" fill-rule="evenodd" xlink:href="#path-1"></use>
        </g>
    </g>
</svg>