<?xml version="1.0" encoding="UTF-8" standalone="no"?>
<svg width="680px" height="300px" viewBox="0 0 680 300" version="1.1" xmlns="http://www.w3.org/2000/svg" xmlns:xlink="http://www.w3.org/1999/xlink">
    <!-- Generator: Sketch 39.1 (31720) - http://www.bohemiancoding.com/sketch -->
    <title>Rectangle 8</title>
    <desc>Created with Sketch.</desc>
    <defs>
        <filter x="-50%" y="-50%" width="200%" height="200%" filterUnits="objectBoundingBox" id="filter-1">
            <feOffset dx="0" dy="0" in="SourceAlpha" result="shadowOffsetOuter1"></feOffset>
            <feGaussianBlur stdDeviation="5" in="shadowOffsetOuter1" result="shadowBlurOuter1"></feGaussianBlur>
            <feColorMatrix values="0 0 0 0 0.294164541   0 0 0 0 0.294164541   0 0 0 0 0.294164541  0 0 0 0.3 0" type="matrix" in="shadowBlurOuter1" result="shadowMatrixOuter1"></feColorMatrix>
            <feMerge>
                <feMergeNode in="shadowMatrixOuter1"></feMergeNode>
                <feMergeNode in="SourceGraphic"></feMergeNode>
            </feMerge>
        </filter>
        <path d="M482.062689,33.9502009 C479.792006,31.3550865 475.131818,24.1369597 477.756533,15.6766976 C481.201458,4.57264606 490.429435,0.341581269 502.422458,0.341581259 C509.350534,0.341581253 518.028557,3.06859698 522.63625,12.5151118 C527.243943,21.9616267 521.30029,33.4717387 518.142445,35.0985087 C514.984601,36.7252788 484.333372,36.5453154 482.062689,33.9502009 Z" id="path-2"></path>
        <mask id="mask-3" maskContentUnits="userSpaceOnUse" maskUnits="objectBoundingBox" x="-2" y="-2" width="51.347755" height="39.8054591">
            <rect x="474.977151" y="-1.65841874" width="51.347755" height="39.8054591" fill="white"></rect>
            <use xlink:href="#path-2" fill="black"></use>
        </mask>
        <path d="M483.982534,5.1756711 C478.5809,10.2022149 481.49102,16.9430006 486.722757,18.1596833 C494.455752,19.9580539 495.564674,11.6984549 496.116515,12.2432413 C496.668357,12.7880278 498.988897,15.8218007 503.904576,15.821801 C507.135033,15.8218012 512.826763,12.8262274 511.757177,7.24909353 C510.687592,1.67195964 505.418698,-1.45472284e-15 502.032444,0 C496.116515,2.54146243e-15 495.003969,3.44954889 494.453218,3.64624548 C493.902466,3.84294207 489.275676,0.250086652 483.982534,5.1756711 Z" id="path-4"></path>
        <mask id="mask-5" maskContentUnits="userSpaceOnUse" maskUnits="objectBoundingBox" x="0" y="0" width="30.7927379" height="18.4163732" fill="white">
            <use xlink:href="#path-4"></use>
        </mask>
    </defs>
    <g id="Page-1" stroke="none" stroke-width="1" fill="none" fill-rule="evenodd">
        <g id="Group-3" filter="url(#filter-1)" transform="translate(17.000000, 85.000000)">
            <path d="M573.859375,0.893554688 L578.498047,0.893554688 L578.498047,35 L574.298828,35 L551.496094,8.75488281 L551.496094,35 L546.90625,35 L546.90625,0.893554688 L550.861328,0.893554688 L573.859375,27.3583984 L573.859375,0.893554688 Z M634.230469,18.203125 L645.680664,18.203125 L645.680664,32.65625 C641.481424,34.4791758 637.314799,35.390625 633.180664,35.390625 C627.532849,35.390625 623.020362,33.7426923 619.643066,30.4467773 C616.265771,27.1508624 614.577148,23.0859617 614.577148,18.2519531 C614.577148,13.1575266 616.326805,8.91766016 619.826172,5.53222656 C623.325538,2.14679297 627.711888,0.454101562 632.985352,0.454101562 C634.905934,0.454101562 636.728833,0.661619019 638.454102,1.07666016 C640.179371,1.49170129 642.360338,2.25259863 644.99707,3.359375 L644.99707,8.33984375 C640.92804,5.97980591 636.891622,4.79980469 632.887695,4.79980469 C629.160463,4.79980469 626.019219,6.06932324 623.463867,8.60839844 C620.908516,11.1474736 619.630859,14.2643044 619.630859,17.9589844 C619.630859,21.8327017 620.908516,24.9983601 623.463867,27.4560547 C626.019219,29.9137493 629.306946,31.1425781 633.327148,31.1425781 C635.280283,31.1425781 637.615872,30.6949915 640.333984,29.7998047 L640.797852,29.6533203 L640.797852,22.5488281 L634.230469,22.5488281 L634.230469,18.203125 Z" id="NG" fill="#292929"></path>
            <use id="Path-6" stroke="#2A2A2A" mask="url(#mask-3)" stroke-width="4" xlink:href="#path-2"></use>
            <path d="M500.349824,17.3383436 C503.270148,18.3679336 499.451109,22.7911256 496.854152,23.0796764 C494.285102,23.3651266 491.76018,21.6991636 492.464149,20.0649836 C493.168117,18.4308037 499.312744,16.9727103 500.349824,17.3383436 Z" id="Path-10" stroke="#2A2A2A" stroke-width="2" stroke-linecap="round"></path>
            <use id="Path-7" stroke="#2A2A2A" mask="url(#mask-5)" stroke-width="4" xlink:href="#path-4"></use>
            <circle id="Oval" fill="#2A2A2A" cx="491.5" cy="7.5" r="2.5"></circle>
            <circle id="Oval-Copy" fill="#2A2A2A" cx="499.5" cy="5.5" r="2.5"></circle>
            <polygon id="M" fill="#292929" points="448.908203 0.893554688 453.449219 0.893554688 453.449219 35 448.541992 35 448.541992 8.46191406 438.043945 21.6455078 437.140625 21.6455078 426.544922 8.46191406 426.544922 35 421.662109 35 421.662109 0.893554688 426.251953 0.893554688 437.604492 14.9072266"></polygon>
            <path d="M31.1542969,27.0898438 L31.1542969,32.4609375 C27.5735498,34.4140723 23.4394766,35.390625 18.7519531,35.390625 C14.9433403,35.390625 11.7125784,34.6256587 9.05957031,33.0957031 C6.40656226,31.5657476 4.30697388,29.4580212 2.76074219,26.7724609 C1.2145105,24.0869006 0.44140625,21.1816563 0.44140625,18.0566406 C0.44140625,13.0924231 2.21140808,8.91766016 5.75146484,5.53222656 C9.29152161,2.14679297 13.6575261,0.454101562 18.8496094,0.454101562 C22.4303564,0.454101562 26.4098088,1.3899646 30.7880859,3.26171875 L30.7880859,8.51074219 C26.8004358,6.23208496 22.9023628,5.09277344 19.09375,5.09277344 C15.1874805,5.09277344 11.9445116,6.32567126 9.36474609,8.79150391 C6.78498059,11.2573365 5.49511719,14.3456846 5.49511719,18.0566406 C5.49511719,21.8001489 6.76463574,24.87629 9.30371094,27.2851562 C11.8427861,29.6940225 15.089824,30.8984375 19.0449219,30.8984375 C23.1790571,30.8984375 27.2154751,29.6289189 31.1542969,27.0898438 L31.1542969,27.0898438 Z M91.2080078,0.893554688 L96.0908203,0.893554688 L96.0908203,35 L91.2080078,35 L91.2080078,20.15625 L72.0429688,20.15625 L72.0429688,35 L67.1601562,35 L67.1601562,0.893554688 L72.0429688,0.893554688 L72.0429688,15.6396484 L91.2080078,15.6396484 L91.2080078,0.893554688 Z M157.34082,0.893554688 L162.248047,0.893554688 L162.248047,20.2539062 C162.248047,22.8743621 162.056805,24.8518813 161.674316,26.1865234 C161.291828,27.5211655 160.819827,28.6319943 160.258301,29.519043 C159.696775,30.4060917 159.009119,31.1995408 158.195312,31.8994141 C155.493476,34.2268997 151.96161,35.390625 147.599609,35.390625 C143.156228,35.390625 139.59181,34.2350376 136.90625,31.9238281 C136.092444,31.2076787 135.404788,30.4060917 134.843262,29.519043 C134.281735,28.6319943 133.817873,27.5455793 133.45166,26.2597656 C133.085447,24.9739519 132.902344,22.9557429 132.902344,20.2050781 L132.902344,0.893554688 L137.80957,0.893554688 L137.80957,20.2539062 C137.80957,23.4603025 138.175778,25.6900979 138.908203,26.9433594 C139.640629,28.1966208 140.755526,29.2016564 142.25293,29.9584961 C143.750333,30.7153358 145.516266,31.09375 147.550781,31.09375 C150.447931,31.09375 152.807934,30.3369216 154.630859,28.8232422 C155.591151,28.009436 156.282875,27.0491592 156.706055,25.9423828 C157.129234,24.8356064 157.34082,22.9394666 157.34082,20.2539062 L157.34082,0.893554688 Z M208.654297,0.698242188 L212.09668,0.698242188 L227.355469,35 L222.350586,35 L217.80957,24.8925781 L203.307617,24.8925781 L199.010742,35 L194.005859,35 L208.654297,0.698242188 Z M215.807617,20.546875 L210.314453,8.19335938 L205.211914,20.546875 L215.807617,20.546875 Z M288.214844,0.893554688 L292.853516,0.893554688 L292.853516,35 L288.654297,35 L265.851562,8.75488281 L265.851562,35 L261.261719,35 L261.261719,0.893554688 L265.216797,0.893554688 L288.214844,27.3583984 L288.214844,0.893554688 Z M348.585938,18.203125 L360.036133,18.203125 L360.036133,32.65625 C355.836893,34.4791758 351.670268,35.390625 347.536133,35.390625 C341.888318,35.390625 337.375831,33.7426923 333.998535,30.4467773 C330.62124,27.1508624 328.932617,23.0859617 328.932617,18.2519531 C328.932617,13.1575266 330.682274,8.91766016 334.181641,5.53222656 C337.681007,2.14679297 342.067356,0.454101562 347.34082,0.454101562 C349.261403,0.454101562 351.084301,0.661619019 352.80957,1.07666016 C354.534839,1.49170129 356.715807,2.25259863 359.352539,3.359375 L359.352539,8.33984375 C355.283508,5.97980591 351.24709,4.79980469 347.243164,4.79980469 C343.515932,4.79980469 340.374687,6.06932324 337.819336,8.60839844 C335.263985,11.1474736 333.986328,14.2643044 333.986328,17.9589844 C333.986328,21.8327017 335.263985,24.9983601 337.819336,27.4560547 C340.374687,29.9137493 343.662415,31.1425781 347.682617,31.1425781 C349.635752,31.1425781 351.971341,30.6949915 354.689453,29.7998047 L355.15332,29.6533203 L355.15332,22.5488281 L348.585938,22.5488281 L348.585938,18.203125 Z" id="CHUANG" fill="#292929"></path>
            <path d="M227.103516,78.8466797 L225.248047,77.7236328 C224.084304,77.0156215 223.256269,76.3177932 222.763916,75.630127 C222.271563,74.9424608 222.025391,74.1510461 222.025391,73.2558594 C222.025391,71.9130792 222.491288,70.8225953 223.423096,69.984375 C224.354904,69.1461547 225.565422,68.7270508 227.054688,68.7270508 C228.478848,68.7270508 229.784988,69.1258098 230.973145,69.9233398 L230.973145,72.6943359 C229.744297,71.514317 228.421882,70.9243164 227.005859,70.9243164 C226.208329,70.9243164 225.553225,71.1094545 225.040527,71.4797363 C224.527829,71.8500181 224.271484,72.3240531 224.271484,72.9018555 C224.271484,73.4145533 224.458657,73.8946918 224.833008,74.3422852 C225.207359,74.7898785 225.813635,75.2578101 226.651855,75.7460938 L228.519531,76.8447266 C230.602875,78.0817119 231.644531,79.6604722 231.644531,81.5810547 C231.644531,82.948249 231.186772,84.0590778 230.27124,84.9135742 C229.355708,85.7680707 228.165535,86.1953125 226.700684,86.1953125 C225.016105,86.1953125 223.482103,85.6785533 222.098633,84.6450195 L222.098633,81.5444336 C223.416999,83.2127362 224.942862,84.046875 226.67627,84.046875 C227.441247,84.046875 228.078041,83.8332541 228.58667,83.4060059 C229.095299,82.9787576 229.349609,82.4436881 229.349609,81.8007812 C229.349609,80.7591094 228.600919,79.7744187 227.103516,78.8466797 L227.103516,78.8466797 Z M255.877441,68.9223633 L270.123047,68.9223633 L270.123047,71.0952148 L264.178223,71.0952148 L264.178223,86 L261.724609,86 L261.724609,71.0952148 L255.877441,71.0952148 L255.877441,68.9223633 Z M307.29541,68.9467773 L309.749023,68.9467773 L309.749023,78.6269531 C309.749023,79.937181 309.653403,80.9259407 309.462158,81.5932617 C309.270914,82.2605828 309.034914,82.8159971 308.75415,83.2595215 C308.473387,83.7030458 308.129559,84.0997704 307.722656,84.449707 C306.371738,85.6134498 304.605805,86.1953125 302.424805,86.1953125 C300.203114,86.1953125 298.420905,85.6175188 297.078125,84.4619141 C296.671222,84.1038394 296.327394,83.7030458 296.046631,83.2595215 C295.765868,82.8159971 295.533936,82.2727897 295.35083,81.6298828 C295.167724,80.986976 295.076172,79.9778715 295.076172,78.6025391 L295.076172,68.9467773 L297.529785,68.9467773 L297.529785,78.6269531 C297.529785,80.2301512 297.712889,81.345049 298.079102,81.9716797 C298.445314,82.5983104 299.002763,83.1008282 299.751465,83.479248 C300.500167,83.8576679 301.383133,84.046875 302.400391,84.046875 C303.848966,84.046875 305.028967,83.6684608 305.94043,82.9116211 C306.420575,82.504718 306.766438,82.0245796 306.978027,81.4711914 C307.189617,80.9178032 307.29541,79.9697333 307.29541,78.6269531 L307.29541,68.9467773 Z M336.154785,85.9755859 L336.154785,68.9467773 L341.904297,68.9467773 C344.223644,68.9467773 346.05875,69.2946743 347.409668,69.9904785 C348.760586,70.6862828 349.834794,71.7096287 350.632324,73.0605469 C351.429854,74.4114651 351.828613,75.8844321 351.828613,77.4794922 C351.828613,78.6188208 351.608889,79.7093047 351.169434,80.7509766 C350.729978,81.7926484 350.103357,82.7081666 349.289551,83.4975586 C348.459469,84.3113647 347.495123,84.9257792 346.396484,85.3408203 C345.753578,85.5931002 345.163577,85.7619625 344.626465,85.8474121 C344.089353,85.9328618 343.063972,85.9755859 341.550293,85.9755859 L336.154785,85.9755859 Z M341.647949,71.1196289 L338.596191,71.1196289 L338.596191,83.8027344 L341.721191,83.8027344 C342.941901,83.8027344 343.889971,83.7193205 344.56543,83.5524902 C345.240889,83.38566 345.804441,83.1740735 346.256104,82.9177246 C346.707766,82.6613757 347.120766,82.3460305 347.495117,81.9716797 C348.69955,80.7509705 349.301758,79.2088309 349.301758,77.3452148 C349.301758,75.514151 348.683274,74.0208391 347.446289,72.8652344 C346.990558,72.4339171 346.467695,72.0799167 345.877686,71.8032227 C345.287676,71.5265286 344.728193,71.3434249 344.199219,71.2539062 C343.670245,71.1643876 342.81983,71.1196289 341.647949,71.1196289 L341.647949,71.1196289 Z M377.904785,68.9467773 L380.346191,68.9467773 L380.346191,86 L377.904785,86 L377.904785,68.9467773 Z M415.504395,68.7026367 C418.141126,68.7026367 420.336336,69.5367755 422.090088,71.2050781 C423.84384,72.8733807 424.720703,74.9648312 424.720703,77.4794922 C424.720703,79.9941532 423.835702,82.0754312 422.065674,83.7233887 C420.295645,85.3713461 418.063816,86.1953125 415.370117,86.1953125 C412.79849,86.1953125 410.656177,85.3713461 408.943115,83.7233887 C407.230053,82.0754312 406.373535,80.0104291 406.373535,77.5283203 C406.373535,74.9811071 407.236157,72.8733807 408.961426,71.2050781 C410.686695,69.5367755 412.867663,68.7026367 415.504395,68.7026367 L415.504395,68.7026367 Z M415.602051,71.0219727 C413.648916,71.0219727 412.043707,71.6323181 410.786377,72.8530273 C409.529046,74.0737366 408.900391,75.632152 408.900391,77.5283203 C408.900391,79.3675222 409.531081,80.8974548 410.79248,82.1181641 C412.05388,83.3388733 413.63264,83.9492188 415.528809,83.9492188 C417.433115,83.9492188 419.022048,83.3266664 420.295654,82.081543 C421.569261,80.8364196 422.206055,79.2861421 422.206055,77.4306641 C422.206055,75.6240144 421.569261,74.1042542 420.295654,72.8713379 C419.022048,71.6384216 417.457529,71.0219727 415.602051,71.0219727 L415.602051,71.0219727 Z" id="STUDIO" fill="#292929"></path>
        </g>
    </g>
</svg>