<?xml version="1.0" encoding="UTF-8" standalone="no"?>
<svg width="48px" height="48px" viewBox="0 0 48 48" version="1.1" xmlns="http://www.w3.org/2000/svg" xmlns:xlink="http://www.w3.org/1999/xlink">
    <!-- Generator: Sketch 39.1 (31720) - http://www.bohemiancoding.com/sketch -->
    <title>Rectangle 5</title>
    <desc>Created with Sketch.</desc>
    <defs>
        <path d="M24,2 C11.8523333,2 2,11.8505 2,24 C2,33.7203333 8.303,41.9666667 17.0461667,44.8761667 C18.1443333,45.0796667 18.5,44.3976667 18.5,43.8183333 L18.5,39.7226667 C12.3803333,41.0536667 11.1061667,37.1266667 11.1061667,37.1266667 C10.1051667,34.5838333 8.66233333,33.9073333 8.66233333,33.9073333 C6.66583333,32.5415 8.8145,32.5708333 8.8145,32.5708333 C11.0236667,32.7248333 12.186,34.8386667 12.186,34.8386667 C14.1476667,38.201 17.3321667,37.2293333 18.588,36.6665 C18.7841667,35.2456667 19.3543333,34.274 19.985,33.7258333 C15.0991667,33.1666667 9.96216667,31.2801667 9.96216667,22.8523333 C9.96216667,20.4488333 10.822,18.4871667 12.2281667,16.9471667 C12.0008333,16.3916667 11.2473333,14.1531667 12.4426667,11.1245 C12.4426667,11.1245 14.2906667,10.5341667 18.4945,13.3795 C20.249,12.8918333 22.13,12.648 24,12.6388333 C25.87,12.648 27.7528333,12.8918333 29.511,13.3795 C33.7111667,10.5341667 35.5555,11.1245 35.5555,11.1245 C36.7526667,14.155 35.9991667,16.3935 35.7718333,16.9471667 C37.1835,18.4871667 38.036,20.4506667 38.036,22.8523333 C38.036,31.3021667 32.8898333,33.163 27.9911667,33.7075 C28.7795,34.3895 29.5,35.7278333 29.5,37.7811667 L29.5,43.8183333 C29.5,44.4031667 29.852,45.0906667 30.9685,44.8743333 C39.7043333,41.9611667 46,33.7166667 46,24 C46,11.8505 36.1495,2 24,2 L24,2 Z" id="path-1"></path>
        <filter x="-50%" y="-50%" width="200%" height="200%" filterUnits="objectBoundingBox" id="filter-2">
            <feOffset dx="0" dy="0" in="SourceAlpha" result="shadowOffsetOuter1"></feOffset>
            <feGaussianBlur stdDeviation="1" in="shadowOffsetOuter1" result="shadowBlurOuter1"></feGaussianBlur>
            <feColorMatrix values="0 0 0 0 0.164705882   0 0 0 0 0.164705882   0 0 0 0 0.164705882  0 0 0 0.5 0" type="matrix" in="shadowBlurOuter1"></feColorMatrix>
        </filter>
    </defs>
    <g id="Page-1" stroke="none" stroke-width="1" fill="none" fill-rule="evenodd">
        <g id="Shape_b">
            <use fill="black" fill-opacity="1" filter="url(#filter-2)" xlink:href="#path-1"></use>
            <use fill="#2A2A2A" fill-rule="evenodd" xlink:href="#path-1"></use>
        </g>
    </g>
</svg>