<?xml version="1.0" encoding="UTF-8" standalone="no"?>
<svg width="48px" height="48px" viewBox="0 0 48 48" version="1.1" xmlns="http://www.w3.org/2000/svg" xmlns:xlink="http://www.w3.org/1999/xlink">
    <!-- Generator: Sketch 39.1 (31720) - http://www.bohemiancoding.com/sketch -->
    <title>Rectangle 4</title>
    <desc>Created with Sketch.</desc>
    <defs>
        <path d="M3,12 C3,10.3431458 4.34984627,9 6.00368123,9 L41.9963188,9 C43.6552061,9 45,10.3465171 45,12 C45,13.6568542 43.6501537,15 41.9963188,15 L6.00368123,15 C4.34479389,15 3,13.6534829 3,12 Z M3,24 C3,22.3431458 4.34984627,21 6.00368123,21 L41.9963188,21 C43.6552061,21 45,22.3465171 45,24 C45,25.6568542 43.6501537,27 41.9963188,27 L6.00368123,27 C4.34479389,27 3,25.6534829 3,24 Z M3,36 C3,34.3431458 4.34984627,33 6.00368123,33 L41.9963188,33 C43.6552061,33 45,34.3465171 45,36 C45,37.6568542 43.6501537,39 41.9963188,39 L6.00368123,39 C4.34479389,39 3,37.6534829 3,36 Z" id="path-1"></path>
        <filter x="-50%" y="-50%" width="200%" height="200%" filterUnits="objectBoundingBox" id="filter-2">
            <feOffset dx="0" dy="0" in="SourceAlpha" result="shadowOffsetOuter1"></feOffset>
            <feGaussianBlur stdDeviation="1" in="shadowOffsetOuter1" result="shadowBlurOuter1"></feGaussianBlur>
            <feColorMatrix values="0 0 0 0 1   0 0 0 0 0.831372549   0 0 0 0 0.345098039  0 0 0 0.5 0" type="matrix" in="shadowBlurOuter1"></feColorMatrix>
        </filter>
    </defs>
    <g id="Page-1" stroke="none" stroke-width="1" fill="none" fill-rule="evenodd">
        <g id="Combined-Shape_y">
            <use fill="black" fill-opacity="1" filter="url(#filter-2)" xlink:href="#path-1"></use>
            <use fill="#FFD458" fill-rule="evenodd" xlink:href="#path-1"></use>
        </g>
    </g>
</svg>